# xmcd
#
# Track frame offsets: 
#        183
#        11590
#        23775
#        33578
#        44775
#        56728
#        68778
#        84063
#        94845
#        107268
#        120458
#        133078
#        143485
#        155113
#        167078
#
# Disc length: 2450 seconds
#
# Revision: 1
# Processed by: cddbd v1.5.1PL2 Copyright (c) Steve Scherf et al.
# Submitted via: ExactAudioCopy v0.95b4
#
DISCID=c209900f
DTITLE=John Lee Hooker - Boom Boom
DYEAR=1992
DGENRE=Blues
TTITLE0=Mambo Chillun
TTITLE1=Unfriendly Woman
TTITLE2=I'm so excited
TTITLE3=Boom Boom
TTITLE4=Crawlin' Black Spider
TTITLE5=You have taken my woman
TTITLE6=House Rent Boogie
TTITLE7=I'm mad again
TTITLE8=Hard hearted woman
TTITLE9=Baby Lee
TTITLE10=Trouble Blues
TTITLE11=Run On
TTITLE12=My first wife left me
TTITLE13=Whiskey and Wimmen
TTITLE14=Process
EXTD=
EXTT0=
EXTT1=
EXTT2=
EXTT3=
EXTT4=
EXTT5=
EXTT6=
EXTT7=
EXTT8=
EXTT9=
EXTT10=
EXTT11=
EXTT12=
EXTT13=
EXTT14=
PLAYORDER=
